<?xml version="1.0" encoding="utf-8"?>
<!-- Generator: Adobe Illustrator 16.0.0, SVG Export Plug-In . SVG Version: 6.00 Build 0)  -->
<!DOCTYPE svg PUBLIC "-//W3C//DTD SVG 1.1//EN" "http://www.w3.org/Graphics/SVG/1.1/DTD/svg11.dtd">
<svg version="1.1" id="Layer_1" xmlns="http://www.w3.org/2000/svg" xmlns:xlink="http://www.w3.org/1999/xlink" x="0px" y="0px"
	 width="250px" height="250px" viewBox="0 0 250 250" enable-background="new 0 0 250 250" xml:space="preserve">
<g>
	<defs>
		<rect id="SVGID_1_" x="-191" y="-185" width="960" height="560"/>
	</defs>
	<clipPath id="SVGID_2_">
		<use xlink:href="#SVGID_1_"  overflow="visible"/>
	</clipPath>
	<path clip-path="url(#SVGID_2_)" fill="#565656" d="M99.567,165.174c-0.432-1.225-3.341-9.331-10.947-15.508
		c-1.566-1.272-3.168-2.414-4.994-3.436c-5.737-3.208-10.878-4.022-12.795-4.32c-9.633-1.491-31.048-5.211-39.331-7.41
		c-8.081-2.146-19.335-7.009-31.515-19.364l87.56,0.776l0.163-6.728c57.487,0.192,161.292,0,161.292,0s0.097,8.689-0.045,12.876
		l-2.478,0.506c-1.114,0.163-2.779,0.412-4.795,0.732c-22.933,3.639-36.657,5.777-51.682,12.201c-9.057,3.872-15.78,6.838-22,14
		c-5.678,6.538-8.253,13.483-9.5,18c-1.601,15.872,2.463,23.742,6.5,28c5.248,5.534,32.694,18.762,36.63,22.578
		c2.06,1.998,0.669,5.483-2.201,5.484c-44.72,0.03-89.439,0.061-134.159,0.09c-2.683,0.002-4.154-3.108-2.472-5.199
		c4.549-5.649,21.85-14.63,27.702-19.453c2.961-2.441,6.163-5.081,8.5-9.5C104.49,179.114,100.494,167.8,99.567,165.174"/>
	<path clip-path="url(#SVGID_2_)" fill="#565656" d="M61.244,105.412c-3.172-0.58-5.306-3.62-4.766-6.791l8.785-51.56
		C65.44,45.884,76.112,33.755,80.932,28.7c1.328-1.392,3.261-2.025,5.17-1.692l6.186,1.079c0.833,0.254,1.667,0.506,2.138,1.398
		c0.208,0.239,0.353,0.534,0.46,0.861c0.247,0.747,0.28,1.545,0.185,2.322l-3.125,25.716c-0.375,3.084,1.735,5.95,4.797,6.514
		l138.203,25.473c2.175,0.388,0.017,12.627-2.157,12.238L95.3,78.592c-3.097-0.541-6.036,1.467-6.648,4.542l-4.132,20.775
		c-0.615,3.092-3.582,5.102-6.692,4.532L61.244,105.412z"/>
</g>
</svg>
